<mxfile host="app.diagrams.net" modified="2022-09-03T16:01:38.999Z" agent="5.0 (Windows NT 10.0; Win64; x64) AppleWebKit/537.36 (KHTML, like Gecko) Chrome/104.0.0.0 Safari/537.36" etag="LNWk_B7FwkQ69gwN9T1T" version="19.0.0" type="github">
  <diagram id="pUcZfNglk8kVrLdEpiXe" name="第 1 页">
    <mxGraphModel dx="1514" dy="387" grid="0" gridSize="10" guides="1" tooltips="1" connect="1" arrows="1" fold="1" page="1" pageScale="1" pageWidth="827" pageHeight="1169" math="0" shadow="0">
      <root>
        <mxCell id="0" />
        <mxCell id="1" parent="0" />
        <mxCell id="-T9IgUE6gzLjctBuybSC-1" value="Program" style="rounded=1;whiteSpace=wrap;html=1;fillColor=#dae8fc;strokeColor=#6c8ebf;shadow=0;" parent="1" vertex="1">
          <mxGeometry x="-396" y="714" width="80" height="29" as="geometry" />
        </mxCell>
        <mxCell id="-T9IgUE6gzLjctBuybSC-2" value="Instructions" style="text;html=1;resizable=0;autosize=1;align=center;verticalAlign=middle;points=[];fillColor=none;strokeColor=none;rounded=0;shadow=0;" parent="1" vertex="1">
          <mxGeometry x="-264.5" y="689" width="71" height="18" as="geometry" />
        </mxCell>
        <mxCell id="-T9IgUE6gzLjctBuybSC-3" value="" style="rounded=1;whiteSpace=wrap;html=1;fillColor=#dae8fc;strokeColor=#6c8ebf;shadow=0;" parent="1" vertex="1">
          <mxGeometry x="-269" y="714" width="12" height="29" as="geometry" />
        </mxCell>
        <mxCell id="-T9IgUE6gzLjctBuybSC-5" value="" style="rounded=1;whiteSpace=wrap;html=1;fillColor=#dae8fc;strokeColor=#6c8ebf;shadow=0;" parent="1" vertex="1">
          <mxGeometry x="-252" y="714" width="12" height="29" as="geometry" />
        </mxCell>
        <mxCell id="-T9IgUE6gzLjctBuybSC-6" value="" style="rounded=1;whiteSpace=wrap;html=1;fillColor=#dae8fc;strokeColor=#6c8ebf;shadow=0;" parent="1" vertex="1">
          <mxGeometry x="-235" y="714" width="12" height="29" as="geometry" />
        </mxCell>
        <mxCell id="-T9IgUE6gzLjctBuybSC-7" value="" style="rounded=1;whiteSpace=wrap;html=1;fillColor=#dae8fc;strokeColor=#6c8ebf;shadow=0;" parent="1" vertex="1">
          <mxGeometry x="-218" y="714" width="12" height="29" as="geometry" />
        </mxCell>
        <mxCell id="-T9IgUE6gzLjctBuybSC-8" value="" style="rounded=1;whiteSpace=wrap;html=1;fillColor=#dae8fc;strokeColor=#6c8ebf;shadow=0;" parent="1" vertex="1">
          <mxGeometry x="-201" y="714" width="12" height="29" as="geometry" />
        </mxCell>
        <mxCell id="-T9IgUE6gzLjctBuybSC-9" value="" style="shape=flexArrow;endArrow=classic;html=1;rounded=0;endWidth=12.571428571428571;endSize=5.422857142857143;shadow=0;" parent="1" edge="1">
          <mxGeometry width="50" height="50" relative="1" as="geometry">
            <mxPoint x="-177" y="728.7299999999999" as="sourcePoint" />
            <mxPoint x="-150" y="728.21" as="targetPoint" />
          </mxGeometry>
        </mxCell>
        <mxCell id="-T9IgUE6gzLjctBuybSC-11" value="Processor" style="rounded=1;whiteSpace=wrap;html=1;fillColor=#ffe6cc;strokeColor=#d79b00;shadow=0;" parent="1" vertex="1">
          <mxGeometry x="-139" y="714" width="80" height="29" as="geometry" />
        </mxCell>
        <mxCell id="-T9IgUE6gzLjctBuybSC-13" value="" style="shape=flexArrow;endArrow=classic;html=1;rounded=0;endWidth=12.571428571428571;endSize=5.422857142857143;shadow=0;" parent="1" edge="1">
          <mxGeometry width="50" height="50" relative="1" as="geometry">
            <mxPoint x="-306" y="728.73" as="sourcePoint" />
            <mxPoint x="-279" y="728.2100000000003" as="targetPoint" />
          </mxGeometry>
        </mxCell>
        <mxCell id="-T9IgUE6gzLjctBuybSC-14" value="Sub-program" style="rounded=1;whiteSpace=wrap;html=1;fillColor=#dae8fc;strokeColor=#6c8ebf;shadow=0;" parent="1" vertex="1">
          <mxGeometry x="192.5" y="645" width="80" height="29" as="geometry" />
        </mxCell>
        <mxCell id="-T9IgUE6gzLjctBuybSC-15" value="Instructions" style="text;html=1;resizable=0;autosize=1;align=center;verticalAlign=middle;points=[];fillColor=none;strokeColor=none;rounded=0;shadow=0;" parent="1" vertex="1">
          <mxGeometry x="324" y="620" width="71" height="18" as="geometry" />
        </mxCell>
        <mxCell id="-T9IgUE6gzLjctBuybSC-16" value="" style="rounded=1;whiteSpace=wrap;html=1;fillColor=#dae8fc;strokeColor=#6c8ebf;shadow=0;" parent="1" vertex="1">
          <mxGeometry x="319.5" y="645" width="12" height="29" as="geometry" />
        </mxCell>
        <mxCell id="-T9IgUE6gzLjctBuybSC-17" value="" style="rounded=1;whiteSpace=wrap;html=1;fillColor=#dae8fc;strokeColor=#6c8ebf;shadow=0;" parent="1" vertex="1">
          <mxGeometry x="336.5" y="645" width="12" height="29" as="geometry" />
        </mxCell>
        <mxCell id="-T9IgUE6gzLjctBuybSC-18" value="" style="rounded=1;whiteSpace=wrap;html=1;fillColor=#dae8fc;strokeColor=#6c8ebf;shadow=0;" parent="1" vertex="1">
          <mxGeometry x="353.5" y="645" width="12" height="29" as="geometry" />
        </mxCell>
        <mxCell id="-T9IgUE6gzLjctBuybSC-19" value="" style="rounded=1;whiteSpace=wrap;html=1;fillColor=#dae8fc;strokeColor=#6c8ebf;shadow=0;" parent="1" vertex="1">
          <mxGeometry x="370.5" y="645" width="12" height="29" as="geometry" />
        </mxCell>
        <mxCell id="-T9IgUE6gzLjctBuybSC-20" value="" style="rounded=1;whiteSpace=wrap;html=1;fillColor=#dae8fc;strokeColor=#6c8ebf;shadow=0;" parent="1" vertex="1">
          <mxGeometry x="387.5" y="645" width="12" height="29" as="geometry" />
        </mxCell>
        <mxCell id="-T9IgUE6gzLjctBuybSC-21" value="" style="shape=flexArrow;endArrow=classic;html=1;rounded=0;endWidth=12.571428571428571;endSize=5.422857142857143;shadow=0;" parent="1" edge="1">
          <mxGeometry width="50" height="50" relative="1" as="geometry">
            <mxPoint x="411.5" y="659.73" as="sourcePoint" />
            <mxPoint x="438.5" y="659.2100000000003" as="targetPoint" />
          </mxGeometry>
        </mxCell>
        <mxCell id="-T9IgUE6gzLjctBuybSC-22" value="Processor" style="rounded=1;whiteSpace=wrap;html=1;fillColor=#ffe6cc;strokeColor=#d79b00;shadow=0;" parent="1" vertex="1">
          <mxGeometry x="449.5" y="645" width="80" height="29" as="geometry" />
        </mxCell>
        <mxCell id="-T9IgUE6gzLjctBuybSC-23" value="" style="shape=flexArrow;endArrow=classic;html=1;rounded=0;endWidth=12.571428571428571;endSize=5.422857142857143;shadow=0;" parent="1" edge="1">
          <mxGeometry width="50" height="50" relative="1" as="geometry">
            <mxPoint x="282.5" y="659.73" as="sourcePoint" />
            <mxPoint x="309.5" y="659.2100000000003" as="targetPoint" />
          </mxGeometry>
        </mxCell>
        <mxCell id="-T9IgUE6gzLjctBuybSC-24" value="Sub-program" style="rounded=1;whiteSpace=wrap;html=1;fillColor=#dae8fc;strokeColor=#6c8ebf;shadow=0;" parent="1" vertex="1">
          <mxGeometry x="191" y="714" width="80" height="29" as="geometry" />
        </mxCell>
        <mxCell id="-T9IgUE6gzLjctBuybSC-25" value="Instructions" style="text;html=1;resizable=0;autosize=1;align=center;verticalAlign=middle;points=[];fillColor=none;strokeColor=none;rounded=0;shadow=0;" parent="1" vertex="1">
          <mxGeometry x="322.5" y="689" width="71" height="18" as="geometry" />
        </mxCell>
        <mxCell id="-T9IgUE6gzLjctBuybSC-26" value="" style="rounded=1;whiteSpace=wrap;html=1;fillColor=#dae8fc;strokeColor=#6c8ebf;shadow=0;" parent="1" vertex="1">
          <mxGeometry x="318" y="714" width="12" height="29" as="geometry" />
        </mxCell>
        <mxCell id="-T9IgUE6gzLjctBuybSC-27" value="" style="rounded=1;whiteSpace=wrap;html=1;fillColor=#dae8fc;strokeColor=#6c8ebf;shadow=0;" parent="1" vertex="1">
          <mxGeometry x="335" y="714" width="12" height="29" as="geometry" />
        </mxCell>
        <mxCell id="-T9IgUE6gzLjctBuybSC-28" value="" style="rounded=1;whiteSpace=wrap;html=1;fillColor=#dae8fc;strokeColor=#6c8ebf;shadow=0;" parent="1" vertex="1">
          <mxGeometry x="352" y="714" width="12" height="29" as="geometry" />
        </mxCell>
        <mxCell id="-T9IgUE6gzLjctBuybSC-29" value="" style="rounded=1;whiteSpace=wrap;html=1;fillColor=#dae8fc;strokeColor=#6c8ebf;shadow=0;" parent="1" vertex="1">
          <mxGeometry x="369" y="714" width="12" height="29" as="geometry" />
        </mxCell>
        <mxCell id="-T9IgUE6gzLjctBuybSC-30" value="" style="rounded=1;whiteSpace=wrap;html=1;fillColor=#dae8fc;strokeColor=#6c8ebf;shadow=0;" parent="1" vertex="1">
          <mxGeometry x="386" y="714" width="12" height="29" as="geometry" />
        </mxCell>
        <mxCell id="-T9IgUE6gzLjctBuybSC-31" value="" style="shape=flexArrow;endArrow=classic;html=1;rounded=0;endWidth=12.571428571428571;endSize=5.422857142857143;shadow=0;" parent="1" edge="1">
          <mxGeometry width="50" height="50" relative="1" as="geometry">
            <mxPoint x="410" y="728.73" as="sourcePoint" />
            <mxPoint x="437" y="728.2100000000003" as="targetPoint" />
          </mxGeometry>
        </mxCell>
        <mxCell id="-T9IgUE6gzLjctBuybSC-32" value="Processor" style="rounded=1;whiteSpace=wrap;html=1;fillColor=#ffe6cc;strokeColor=#d79b00;shadow=0;" parent="1" vertex="1">
          <mxGeometry x="448" y="714" width="80" height="29" as="geometry" />
        </mxCell>
        <mxCell id="-T9IgUE6gzLjctBuybSC-33" value="" style="shape=flexArrow;endArrow=classic;html=1;rounded=0;endWidth=12.571428571428571;endSize=5.422857142857143;shadow=0;" parent="1" edge="1">
          <mxGeometry width="50" height="50" relative="1" as="geometry">
            <mxPoint x="281" y="728.73" as="sourcePoint" />
            <mxPoint x="308" y="728.2100000000003" as="targetPoint" />
          </mxGeometry>
        </mxCell>
        <mxCell id="-T9IgUE6gzLjctBuybSC-34" value="Sub-program" style="rounded=1;whiteSpace=wrap;html=1;fillColor=#dae8fc;strokeColor=#6c8ebf;shadow=0;" parent="1" vertex="1">
          <mxGeometry x="191" y="782" width="80" height="29" as="geometry" />
        </mxCell>
        <mxCell id="-T9IgUE6gzLjctBuybSC-35" value="Instructions" style="text;html=1;resizable=0;autosize=1;align=center;verticalAlign=middle;points=[];fillColor=none;strokeColor=none;rounded=0;shadow=0;" parent="1" vertex="1">
          <mxGeometry x="322.5" y="757" width="71" height="18" as="geometry" />
        </mxCell>
        <mxCell id="-T9IgUE6gzLjctBuybSC-36" value="" style="rounded=1;whiteSpace=wrap;html=1;fillColor=#dae8fc;strokeColor=#6c8ebf;shadow=0;" parent="1" vertex="1">
          <mxGeometry x="318" y="782" width="12" height="29" as="geometry" />
        </mxCell>
        <mxCell id="-T9IgUE6gzLjctBuybSC-37" value="" style="rounded=1;whiteSpace=wrap;html=1;fillColor=#dae8fc;strokeColor=#6c8ebf;shadow=0;" parent="1" vertex="1">
          <mxGeometry x="335" y="782" width="12" height="29" as="geometry" />
        </mxCell>
        <mxCell id="-T9IgUE6gzLjctBuybSC-38" value="" style="rounded=1;whiteSpace=wrap;html=1;fillColor=#dae8fc;strokeColor=#6c8ebf;shadow=0;" parent="1" vertex="1">
          <mxGeometry x="352" y="782" width="12" height="29" as="geometry" />
        </mxCell>
        <mxCell id="-T9IgUE6gzLjctBuybSC-39" value="" style="rounded=1;whiteSpace=wrap;html=1;fillColor=#dae8fc;strokeColor=#6c8ebf;shadow=0;" parent="1" vertex="1">
          <mxGeometry x="369" y="782" width="12" height="29" as="geometry" />
        </mxCell>
        <mxCell id="-T9IgUE6gzLjctBuybSC-40" value="" style="rounded=1;whiteSpace=wrap;html=1;fillColor=#dae8fc;strokeColor=#6c8ebf;shadow=0;" parent="1" vertex="1">
          <mxGeometry x="386" y="782" width="12" height="29" as="geometry" />
        </mxCell>
        <mxCell id="-T9IgUE6gzLjctBuybSC-41" value="" style="shape=flexArrow;endArrow=classic;html=1;rounded=0;endWidth=12.571428571428571;endSize=5.422857142857143;shadow=0;" parent="1" edge="1">
          <mxGeometry width="50" height="50" relative="1" as="geometry">
            <mxPoint x="410" y="796.73" as="sourcePoint" />
            <mxPoint x="437" y="796.2100000000003" as="targetPoint" />
          </mxGeometry>
        </mxCell>
        <mxCell id="-T9IgUE6gzLjctBuybSC-42" value="Processor" style="rounded=1;whiteSpace=wrap;html=1;fillColor=#ffe6cc;strokeColor=#d79b00;shadow=0;" parent="1" vertex="1">
          <mxGeometry x="448" y="782" width="80" height="29" as="geometry" />
        </mxCell>
        <mxCell id="-T9IgUE6gzLjctBuybSC-43" value="" style="shape=flexArrow;endArrow=classic;html=1;rounded=0;endWidth=12.571428571428571;endSize=5.422857142857143;shadow=0;" parent="1" edge="1">
          <mxGeometry width="50" height="50" relative="1" as="geometry">
            <mxPoint x="281" y="796.73" as="sourcePoint" />
            <mxPoint x="308" y="796.2100000000003" as="targetPoint" />
          </mxGeometry>
        </mxCell>
        <mxCell id="-T9IgUE6gzLjctBuybSC-45" style="edgeStyle=orthogonalEdgeStyle;rounded=0;orthogonalLoop=1;jettySize=auto;html=1;entryX=0;entryY=0.5;entryDx=0;entryDy=0;curved=1;shadow=0;" parent="1" source="-T9IgUE6gzLjctBuybSC-44" target="-T9IgUE6gzLjctBuybSC-14" edge="1">
          <mxGeometry relative="1" as="geometry">
            <Array as="points">
              <mxPoint x="153" y="729" />
              <mxPoint x="153" y="659" />
            </Array>
          </mxGeometry>
        </mxCell>
        <mxCell id="-T9IgUE6gzLjctBuybSC-47" style="edgeStyle=orthogonalEdgeStyle;curved=1;rounded=0;orthogonalLoop=1;jettySize=auto;html=1;entryX=0;entryY=0.5;entryDx=0;entryDy=0;shadow=0;" parent="1" source="-T9IgUE6gzLjctBuybSC-44" target="-T9IgUE6gzLjctBuybSC-24" edge="1">
          <mxGeometry relative="1" as="geometry" />
        </mxCell>
        <mxCell id="-T9IgUE6gzLjctBuybSC-48" style="edgeStyle=orthogonalEdgeStyle;curved=1;rounded=0;orthogonalLoop=1;jettySize=auto;html=1;entryX=0;entryY=0.5;entryDx=0;entryDy=0;shadow=0;" parent="1" source="-T9IgUE6gzLjctBuybSC-44" target="-T9IgUE6gzLjctBuybSC-34" edge="1">
          <mxGeometry relative="1" as="geometry">
            <Array as="points">
              <mxPoint x="155" y="729" />
              <mxPoint x="155" y="797" />
            </Array>
          </mxGeometry>
        </mxCell>
        <mxCell id="-T9IgUE6gzLjctBuybSC-44" value="Program" style="rounded=1;whiteSpace=wrap;html=1;fillColor=#dae8fc;strokeColor=#6c8ebf;shadow=0;" parent="1" vertex="1">
          <mxGeometry x="61" y="714" width="80" height="29" as="geometry" />
        </mxCell>
        <mxCell id="-T9IgUE6gzLjctBuybSC-51" value="Processor" style="rounded=1;whiteSpace=wrap;html=1;fillColor=#ffe6cc;strokeColor=#d79b00;shadow=0;" parent="1" vertex="1">
          <mxGeometry x="94" y="165" width="80" height="29" as="geometry" />
        </mxCell>
        <mxCell id="-T9IgUE6gzLjctBuybSC-52" value="[&lt;font color=&quot;#d6b656&quot;&gt;17&lt;/font&gt;, &lt;font color=&quot;#d6b656&quot;&gt;3&lt;/font&gt;, 26, 15, 25, 16, 15, 10] = 20" style="text;html=1;resizable=0;autosize=1;align=center;verticalAlign=middle;points=[];fillColor=none;strokeColor=none;rounded=0;shadow=0;" parent="1" vertex="1">
          <mxGeometry x="182" y="170.5" width="191" height="18" as="geometry" />
        </mxCell>
        <mxCell id="-T9IgUE6gzLjctBuybSC-57" value="" style="group" parent="1" vertex="1" connectable="0">
          <mxGeometry x="213.5" y="167" width="4" height="25" as="geometry" />
        </mxCell>
        <mxCell id="-T9IgUE6gzLjctBuybSC-53" value="" style="triangle;whiteSpace=wrap;html=1;rounded=0;shadow=0;rotation=90;strokeWidth=0.5;fillColor=#ffe6cc;strokeColor=#d79b00;" parent="-T9IgUE6gzLjctBuybSC-57" vertex="1">
          <mxGeometry x="0.5" y="-0.5" width="3" height="4" as="geometry" />
        </mxCell>
        <mxCell id="-T9IgUE6gzLjctBuybSC-56" value="" style="triangle;whiteSpace=wrap;html=1;rounded=0;shadow=0;rotation=-90;strokeWidth=0.5;fillColor=#ffe6cc;strokeColor=#d79b00;" parent="-T9IgUE6gzLjctBuybSC-57" vertex="1">
          <mxGeometry x="0.5" y="21.5" width="3" height="4" as="geometry" />
        </mxCell>
        <mxCell id="Rtdy0W05hqYFn6MkirDX-7" value="&lt;font style=&quot;font-size: 12px;&quot;&gt;r&lt;sub style=&quot;&quot;&gt;0&lt;/sub&gt;&lt;/font&gt;" style="text;html=1;resizable=0;autosize=1;align=center;verticalAlign=middle;points=[];fillColor=none;strokeColor=none;rounded=0;fontFamily=Times New Roman;" vertex="1" parent="1">
          <mxGeometry x="-459" y="1352" width="20" height="21" as="geometry" />
        </mxCell>
        <mxCell id="Rtdy0W05hqYFn6MkirDX-9" value="&lt;font style=&quot;font-size: 12px;&quot;&gt;&lt;font style=&quot;&quot;&gt;r&lt;/font&gt;&lt;font style=&quot;&quot;&gt;&lt;sub style=&quot;&quot;&gt;1&lt;/sub&gt;&lt;/font&gt;&lt;/font&gt;" style="text;html=1;resizable=0;autosize=1;align=center;verticalAlign=middle;points=[];fillColor=none;strokeColor=none;rounded=0;fontFamily=Times New Roman;" vertex="1" parent="1">
          <mxGeometry x="-459" y="1388.5" width="20" height="21" as="geometry" />
        </mxCell>
        <mxCell id="Rtdy0W05hqYFn6MkirDX-10" value="&lt;font style=&quot;font-size: 12px;&quot;&gt;&lt;font style=&quot;&quot;&gt;r&lt;/font&gt;&lt;font style=&quot;&quot;&gt;&lt;sub style=&quot;&quot;&gt;2&lt;/sub&gt;&lt;/font&gt;&lt;/font&gt;" style="text;html=1;resizable=0;autosize=1;align=center;verticalAlign=middle;points=[];fillColor=none;strokeColor=none;rounded=0;fontFamily=Times New Roman;" vertex="1" parent="1">
          <mxGeometry x="-459" y="1420" width="20" height="21" as="geometry" />
        </mxCell>
        <mxCell id="Rtdy0W05hqYFn6MkirDX-11" value="" style="strokeWidth=1;html=1;shape=mxgraph.flowchart.annotation_1;align=left;pointerEvents=1;rotation=-180;fontFamily=Times New Roman;" vertex="1" parent="1">
          <mxGeometry x="-359" y="1352" width="7" height="92" as="geometry" />
        </mxCell>
        <mxCell id="Rtdy0W05hqYFn6MkirDX-12" value="1" style="rounded=0;whiteSpace=wrap;html=1;fontSize=14;fillColor=#dae8fc;strokeColor=none;fontFamily=Times New Roman;" vertex="1" parent="1">
          <mxGeometry x="-431" y="1385.5" width="26" height="26" as="geometry" />
        </mxCell>
        <mxCell id="Rtdy0W05hqYFn6MkirDX-13" value="1" style="rounded=0;whiteSpace=wrap;html=1;fontSize=14;fillColor=#ffe6cc;strokeColor=none;fontFamily=Times New Roman;" vertex="1" parent="1">
          <mxGeometry x="-405" y="1385.5" width="26" height="26" as="geometry" />
        </mxCell>
        <mxCell id="Rtdy0W05hqYFn6MkirDX-14" value="1" style="rounded=0;whiteSpace=wrap;html=1;fontSize=14;fillColor=#d5e8d4;strokeColor=none;fontFamily=Times New Roman;" vertex="1" parent="1">
          <mxGeometry x="-379" y="1385.5" width="26" height="26" as="geometry" />
        </mxCell>
        <mxCell id="Rtdy0W05hqYFn6MkirDX-16" value="" style="strokeWidth=1;html=1;shape=mxgraph.flowchart.annotation_1;align=left;pointerEvents=1;rotation=0;fontFamily=Times New Roman;" vertex="1" parent="1">
          <mxGeometry x="-431" y="1352" width="7" height="92" as="geometry" />
        </mxCell>
        <mxCell id="Rtdy0W05hqYFn6MkirDX-20" value="" style="strokeWidth=1;html=1;shape=mxgraph.flowchart.annotation_1;align=left;pointerEvents=1;rotation=-180;fontFamily=Times New Roman;" vertex="1" parent="1">
          <mxGeometry x="-267" y="1353" width="7" height="92" as="geometry" />
        </mxCell>
        <mxCell id="Rtdy0W05hqYFn6MkirDX-21" value="1" style="rounded=0;whiteSpace=wrap;html=1;fontSize=14;fillColor=#dae8fc;strokeColor=none;fontFamily=Times New Roman;" vertex="1" parent="1">
          <mxGeometry x="-339" y="1360.5" width="26" height="26" as="geometry" />
        </mxCell>
        <mxCell id="Rtdy0W05hqYFn6MkirDX-22" value="1" style="rounded=0;whiteSpace=wrap;html=1;fontSize=14;fillColor=#ffe6cc;strokeColor=none;fontFamily=Times New Roman;" vertex="1" parent="1">
          <mxGeometry x="-313" y="1386.5" width="26" height="26" as="geometry" />
        </mxCell>
        <mxCell id="Rtdy0W05hqYFn6MkirDX-23" value="1" style="rounded=0;whiteSpace=wrap;html=1;fontSize=14;fillColor=#d5e8d4;strokeColor=none;fontFamily=Times New Roman;" vertex="1" parent="1">
          <mxGeometry x="-313" y="1412.5" width="26" height="26" as="geometry" />
        </mxCell>
        <mxCell id="Rtdy0W05hqYFn6MkirDX-24" value="" style="strokeWidth=1;html=1;shape=mxgraph.flowchart.annotation_1;align=left;pointerEvents=1;rotation=0;fontFamily=Times New Roman;" vertex="1" parent="1">
          <mxGeometry x="-339" y="1353" width="7" height="92" as="geometry" />
        </mxCell>
        <mxCell id="Rtdy0W05hqYFn6MkirDX-25" value="1" style="rounded=0;whiteSpace=wrap;html=1;fontSize=14;fillColor=#dae8fc;strokeColor=none;fontFamily=Times New Roman;" vertex="1" parent="1">
          <mxGeometry x="-287" y="1360.5" width="26" height="26" as="geometry" />
        </mxCell>
        <mxCell id="Rtdy0W05hqYFn6MkirDX-26" value="1" style="rounded=0;whiteSpace=wrap;html=1;fontSize=14;fillColor=#d5e8d4;strokeColor=none;fontFamily=Times New Roman;" vertex="1" parent="1">
          <mxGeometry x="-287" y="1412.5" width="26" height="26" as="geometry" />
        </mxCell>
        <mxCell id="Rtdy0W05hqYFn6MkirDX-27" value="" style="ellipse;whiteSpace=wrap;html=1;aspect=fixed;fontSize=12;strokeWidth=1;fillColor=#000000;fontFamily=Times New Roman;" vertex="1" parent="1">
          <mxGeometry x="-348" y="1397" width="5" height="5" as="geometry" />
        </mxCell>
        <mxCell id="Rtdy0W05hqYFn6MkirDX-28" value="&lt;span style=&quot;font-size: 10px;&quot;&gt;C0&lt;/span&gt;" style="text;html=1;resizable=0;autosize=1;align=center;verticalAlign=middle;points=[];fillColor=none;strokeColor=none;rounded=0;fontFamily=Times New Roman;" vertex="1" parent="1">
          <mxGeometry x="-337.5" y="1328" width="24" height="18" as="geometry" />
        </mxCell>
        <mxCell id="Rtdy0W05hqYFn6MkirDX-29" value="&lt;span style=&quot;font-size: 10px;&quot;&gt;C1&lt;/span&gt;" style="text;html=1;resizable=0;autosize=1;align=center;verticalAlign=middle;points=[];fillColor=none;strokeColor=none;rounded=0;fontFamily=Times New Roman;" vertex="1" parent="1">
          <mxGeometry x="-311" y="1328" width="24" height="18" as="geometry" />
        </mxCell>
        <mxCell id="Rtdy0W05hqYFn6MkirDX-31" value="" style="html=1;shadow=0;dashed=0;align=center;verticalAlign=middle;shape=mxgraph.arrows2.arrow;dy=0.62;dx=13.9;notch=0;fontSize=10;strokeWidth=1;fillColor=#FFFFFF;rotation=90;fontFamily=Times New Roman;" vertex="1" parent="1">
          <mxGeometry x="-361.5" y="1461" width="31" height="17" as="geometry" />
        </mxCell>
        <mxCell id="Rtdy0W05hqYFn6MkirDX-48" value="id" style="text;html=1;resizable=0;autosize=1;align=center;verticalAlign=middle;points=[];fillColor=none;strokeColor=none;rounded=0;fontSize=10;fontFamily=Times New Roman;" vertex="1" parent="1">
          <mxGeometry x="-486" y="1510.75" width="19" height="16" as="geometry" />
        </mxCell>
        <mxCell id="Rtdy0W05hqYFn6MkirDX-63" value="" style="shape=table;html=1;whiteSpace=wrap;startSize=0;container=1;collapsible=0;childLayout=tableLayout;fontSize=10;strokeWidth=1;fillColor=#FFFFFF;fontFamily=Times New Roman;swimlaneLine=0;rounded=0;shadow=0;" vertex="1" parent="1">
          <mxGeometry x="-446" y="1556" width="200" height="45.5" as="geometry" />
        </mxCell>
        <mxCell id="Rtdy0W05hqYFn6MkirDX-64" value="" style="shape=tableRow;horizontal=0;startSize=0;swimlaneHead=0;swimlaneBody=0;top=0;left=0;bottom=0;right=0;collapsible=0;dropTarget=0;fillColor=none;points=[[0,0.5],[1,0.5]];portConstraint=eastwest;fontSize=10;strokeWidth=1;fontFamily=Times New Roman;" vertex="1" parent="Rtdy0W05hqYFn6MkirDX-63">
          <mxGeometry width="200" height="46" as="geometry" />
        </mxCell>
        <mxCell id="Rtdy0W05hqYFn6MkirDX-65" value="&lt;font style=&quot;font-size: 11px;&quot;&gt;A&lt;sub style=&quot;font-size: 11px;&quot;&gt;&lt;font style=&quot;font-size: 11px;&quot;&gt;10&lt;/font&gt;&lt;/sub&gt;B&lt;sub style=&quot;font-size: 11px;&quot;&gt;&lt;font style=&quot;font-size: 11px;&quot;&gt;00&lt;/font&gt;&lt;/sub&gt;&lt;/font&gt;" style="shape=partialRectangle;html=1;whiteSpace=wrap;connectable=0;fillColor=#dae8fc;top=0;left=0;bottom=0;right=0;overflow=hidden;fontSize=10;strokeWidth=1;strokeColor=#6c8ebf;fontFamily=Times New Roman;" vertex="1" parent="Rtdy0W05hqYFn6MkirDX-64">
          <mxGeometry width="50" height="46" as="geometry">
            <mxRectangle width="50" height="46" as="alternateBounds" />
          </mxGeometry>
        </mxCell>
        <mxCell id="Rtdy0W05hqYFn6MkirDX-66" value="" style="shape=partialRectangle;html=1;whiteSpace=wrap;connectable=0;fillColor=#ffe6cc;top=0;left=0;bottom=0;right=0;overflow=hidden;fontSize=10;strokeWidth=1;strokeColor=#d79b00;fontFamily=Times New Roman;" vertex="1" parent="Rtdy0W05hqYFn6MkirDX-64">
          <mxGeometry x="50" width="50" height="46" as="geometry">
            <mxRectangle width="50" height="46" as="alternateBounds" />
          </mxGeometry>
        </mxCell>
        <mxCell id="Rtdy0W05hqYFn6MkirDX-67" value="" style="shape=partialRectangle;html=1;whiteSpace=wrap;connectable=0;fillColor=#dae8fc;top=0;left=0;bottom=0;right=0;overflow=hidden;fontSize=10;strokeWidth=1;strokeColor=#6c8ebf;fontFamily=Times New Roman;" vertex="1" parent="Rtdy0W05hqYFn6MkirDX-64">
          <mxGeometry x="100" width="50" height="46" as="geometry">
            <mxRectangle width="50" height="46" as="alternateBounds" />
          </mxGeometry>
        </mxCell>
        <mxCell id="Rtdy0W05hqYFn6MkirDX-68" style="shape=partialRectangle;html=1;whiteSpace=wrap;connectable=0;fillColor=none;top=0;left=0;bottom=0;right=0;overflow=hidden;fontSize=10;strokeWidth=1;fontFamily=Times New Roman;" vertex="1" parent="Rtdy0W05hqYFn6MkirDX-64">
          <mxGeometry x="150" width="50" height="46" as="geometry">
            <mxRectangle width="50" height="46" as="alternateBounds" />
          </mxGeometry>
        </mxCell>
        <mxCell id="Rtdy0W05hqYFn6MkirDX-69" value="value" style="text;html=1;resizable=0;autosize=1;align=center;verticalAlign=middle;points=[];fillColor=none;strokeColor=none;rounded=0;fontSize=10;fontFamily=Times New Roman;" vertex="1" parent="1">
          <mxGeometry x="-495" y="1569" width="36" height="16" as="geometry" />
        </mxCell>
        <mxCell id="Rtdy0W05hqYFn6MkirDX-70" value="&lt;span style=&quot;font-size: 10px;&quot;&gt;C2&lt;/span&gt;" style="text;html=1;resizable=0;autosize=1;align=center;verticalAlign=middle;points=[];fillColor=none;strokeColor=none;rounded=0;fontFamily=Times New Roman;" vertex="1" parent="1">
          <mxGeometry x="-285.5" y="1328" width="24" height="18" as="geometry" />
        </mxCell>
        <mxCell id="Rtdy0W05hqYFn6MkirDX-83" value="" style="strokeWidth=0;html=1;shape=mxgraph.flowchart.extract_or_measurement;whiteSpace=wrap;rounded=0;fontFamily=Times New Roman;fontSize=11;fillColor=#d5e8d4;rotation=-225;strokeColor=#82b366;" vertex="1" parent="1">
          <mxGeometry x="-390.33" y="1572.61" width="62.73" height="33" as="geometry" />
        </mxCell>
        <mxCell id="Rtdy0W05hqYFn6MkirDX-84" value="" style="shape=table;html=1;whiteSpace=wrap;startSize=0;container=1;collapsible=0;childLayout=tableLayout;fontSize=10;strokeWidth=1;fillColor=#FFFFFF;fontFamily=Times New Roman;" vertex="1" parent="1">
          <mxGeometry x="-445.5" y="1496" width="200" height="45.5" as="geometry" />
        </mxCell>
        <mxCell id="Rtdy0W05hqYFn6MkirDX-85" value="" style="shape=tableRow;horizontal=0;startSize=0;swimlaneHead=0;swimlaneBody=0;top=0;left=0;bottom=0;right=0;collapsible=0;dropTarget=0;fillColor=none;points=[[0,0.5],[1,0.5]];portConstraint=eastwest;fontSize=10;strokeWidth=1;fontFamily=Times New Roman;" vertex="1" parent="Rtdy0W05hqYFn6MkirDX-84">
          <mxGeometry width="200" height="46" as="geometry" />
        </mxCell>
        <mxCell id="Rtdy0W05hqYFn6MkirDX-86" value="&lt;span style=&quot;font-size: 11px;&quot;&gt;0&lt;/span&gt;" style="shape=partialRectangle;html=1;whiteSpace=wrap;connectable=0;fillColor=#dae8fc;top=0;left=0;bottom=0;right=0;overflow=hidden;fontSize=10;strokeWidth=1;strokeColor=#6c8ebf;fontFamily=Times New Roman;" vertex="1" parent="Rtdy0W05hqYFn6MkirDX-85">
          <mxGeometry width="50" height="46" as="geometry">
            <mxRectangle width="50" height="46" as="alternateBounds" />
          </mxGeometry>
        </mxCell>
        <mxCell id="Rtdy0W05hqYFn6MkirDX-87" value="" style="shape=partialRectangle;html=1;whiteSpace=wrap;connectable=0;fillColor=#ffe6cc;top=0;left=0;bottom=0;right=0;overflow=hidden;fontSize=10;strokeWidth=1;strokeColor=#d79b00;fontFamily=Times New Roman;" vertex="1" parent="Rtdy0W05hqYFn6MkirDX-85">
          <mxGeometry x="50" width="50" height="46" as="geometry">
            <mxRectangle width="50" height="46" as="alternateBounds" />
          </mxGeometry>
        </mxCell>
        <mxCell id="Rtdy0W05hqYFn6MkirDX-88" value="" style="shape=partialRectangle;html=1;whiteSpace=wrap;connectable=0;fillColor=#dae8fc;top=0;left=0;bottom=0;right=0;overflow=hidden;fontSize=10;strokeWidth=1;strokeColor=#6c8ebf;fontFamily=Times New Roman;" vertex="1" parent="Rtdy0W05hqYFn6MkirDX-85">
          <mxGeometry x="100" width="50" height="46" as="geometry">
            <mxRectangle width="50" height="46" as="alternateBounds" />
          </mxGeometry>
        </mxCell>
        <mxCell id="Rtdy0W05hqYFn6MkirDX-89" style="shape=partialRectangle;html=1;whiteSpace=wrap;connectable=0;fillColor=none;top=0;left=0;bottom=0;right=0;overflow=hidden;fontSize=10;strokeWidth=1;fontFamily=Times New Roman;" vertex="1" parent="Rtdy0W05hqYFn6MkirDX-85">
          <mxGeometry x="150" width="50" height="46" as="geometry">
            <mxRectangle width="50" height="46" as="alternateBounds" />
          </mxGeometry>
        </mxCell>
        <mxCell id="Rtdy0W05hqYFn6MkirDX-91" value="&lt;font style=&quot;font-size: 6px;&quot;&gt;A&lt;sub&gt;11&lt;/sub&gt;B&lt;sub&gt;11&lt;br&gt;&lt;/sub&gt;+A&lt;sub&gt;12&lt;/sub&gt;B&lt;sub&gt;21&lt;/sub&gt;&lt;/font&gt;" style="rounded=0;whiteSpace=wrap;html=1;fontFamily=Times New Roman;fontSize=11;strokeWidth=0;fillColor=none;strokeColor=none;" vertex="1" parent="1">
          <mxGeometry x="-406" y="1569.1200000000001" width="74" height="19.25" as="geometry" />
        </mxCell>
        <mxCell id="Rtdy0W05hqYFn6MkirDX-93" value="" style="strokeWidth=0;html=1;shape=mxgraph.flowchart.extract_or_measurement;whiteSpace=wrap;rounded=0;fontFamily=Times New Roman;fontSize=11;fillColor=#d5e8d4;rotation=-225;strokeColor=#82b366;" vertex="1" parent="1">
          <mxGeometry x="-341.14" y="1572.28" width="62.73" height="33.39" as="geometry" />
        </mxCell>
        <mxCell id="Rtdy0W05hqYFn6MkirDX-92" value="&lt;font style=&quot;font-size: 6px;&quot;&gt;A&lt;sub&gt;10&lt;/sub&gt;B&lt;sub&gt;02&lt;br&gt;&lt;/sub&gt;+A&lt;sub&gt;12&lt;/sub&gt;B&lt;sub&gt;22&lt;/sub&gt;&lt;/font&gt;" style="rounded=0;whiteSpace=wrap;html=1;fontFamily=Times New Roman;fontSize=11;strokeWidth=0;fillColor=none;strokeColor=none;" vertex="1" parent="1">
          <mxGeometry x="-357" y="1569.1200000000003" width="74" height="19.25" as="geometry" />
        </mxCell>
        <mxCell id="Rtdy0W05hqYFn6MkirDX-94" value="" style="strokeWidth=0;html=1;shape=mxgraph.flowchart.extract_or_measurement;whiteSpace=wrap;rounded=0;fontFamily=Times New Roman;fontSize=11;fillColor=#d5e8d4;rotation=-225;strokeColor=#82b366;" vertex="1" parent="1">
          <mxGeometry x="-389.33" y="1513" width="62.73" height="33" as="geometry" />
        </mxCell>
        <mxCell id="Rtdy0W05hqYFn6MkirDX-95" value="" style="strokeWidth=0;html=1;shape=mxgraph.flowchart.extract_or_measurement;whiteSpace=wrap;rounded=0;fontFamily=Times New Roman;fontSize=11;fillColor=#d5e8d4;rotation=-225;strokeColor=#82b366;" vertex="1" parent="1">
          <mxGeometry x="-339" y="1513" width="62.73" height="33" as="geometry" />
        </mxCell>
        <mxCell id="Rtdy0W05hqYFn6MkirDX-96" value="1" style="text;html=1;resizable=0;autosize=1;align=center;verticalAlign=middle;points=[];fillColor=none;strokeColor=none;rounded=0;shadow=0;fontFamily=Times New Roman;fontSize=6;" vertex="1" parent="1">
          <mxGeometry x="-379" y="1513.25" width="16" height="11" as="geometry" />
        </mxCell>
        <mxCell id="Rtdy0W05hqYFn6MkirDX-98" value="2" style="text;html=1;resizable=0;autosize=1;align=center;verticalAlign=middle;points=[];fillColor=none;strokeColor=none;rounded=0;shadow=0;fontFamily=Times New Roman;fontSize=6;" vertex="1" parent="1">
          <mxGeometry x="-328" y="1513.25" width="16" height="11" as="geometry" />
        </mxCell>
        <mxCell id="Rtdy0W05hqYFn6MkirDX-99" value="&lt;span style=&quot;font-size: 10px;&quot;&gt;C0&lt;/span&gt;" style="text;html=1;resizable=0;autosize=1;align=center;verticalAlign=middle;points=[];fillColor=none;strokeColor=none;rounded=0;fontFamily=Times New Roman;" vertex="1" parent="1">
          <mxGeometry x="-430" y="1328" width="24" height="18" as="geometry" />
        </mxCell>
        <mxCell id="Rtdy0W05hqYFn6MkirDX-100" value="&lt;span style=&quot;font-size: 10px;&quot;&gt;C1&lt;/span&gt;" style="text;html=1;resizable=0;autosize=1;align=center;verticalAlign=middle;points=[];fillColor=none;strokeColor=none;rounded=0;fontFamily=Times New Roman;" vertex="1" parent="1">
          <mxGeometry x="-403.5" y="1328" width="24" height="18" as="geometry" />
        </mxCell>
        <mxCell id="Rtdy0W05hqYFn6MkirDX-101" value="&lt;span style=&quot;font-size: 10px;&quot;&gt;C2&lt;/span&gt;" style="text;html=1;resizable=0;autosize=1;align=center;verticalAlign=middle;points=[];fillColor=none;strokeColor=none;rounded=0;fontFamily=Times New Roman;" vertex="1" parent="1">
          <mxGeometry x="-378" y="1328" width="24" height="18" as="geometry" />
        </mxCell>
      </root>
    </mxGraphModel>
  </diagram>
</mxfile>
